<?xml version="1.0" encoding="UTF-8" standalone="no"?>
<svg id="svg4822" xmlns:rdf="http://www.w3.org/1999/02/22-rdf-syntax-ns#" xmlns="http://www.w3.org/2000/svg" enable-background="new 0 0 100 100" xml:space="preserve" height="100%" width="100%" version="1.1" y="0px" x="0px" xmlns:cc="http://creativecommons.org/ns#" xmlns:dc="http://purl.org/dc/elements/1.1/" viewBox="0 0 100 100"><metadata id="metadata4838"><rdf:RDF><cc:Work rdf:about=""><dc:format>image/svg+xml</dc:format><dc:type rdf:resource="http://purl.org/dc/dcmitype/StillImage"/><dc:title/></cc:Work></rdf:RDF></metadata><polygon id="polygon4824" points="17.702,71.042,9.297,62.644,37.37,62.644,37.37,90.703,28.965,82.305,11.27,100,0,88.737" fill="#FFF"/><polygon id="polygon4826" points="88.743,100,100,88.737,82.305,71.042,90.703,62.644,62.649,62.644,62.644,90.703,71.042,82.305" fill="#FFF"/><polygon id="polygon4828" points="100,11.263,88.743,0,71.042,17.708,62.644,9.31,62.644,37.357,90.71,37.37,82.298,28.958" fill="#FFF"/><polygon id="polygon4830" points="9.303,37.37,37.357,37.37,37.376,9.297,28.971,17.708,11.27,0,0,11.276,17.702,28.958" fill="#FFF"/><path id="path4832" fill="#FFF" d="M50,37.787c-6.745,0-12.213,5.469-12.213,12.213,0,6.758,5.469,12.227,12.213,12.227,6.745,0,12.22-5.469,12.22-12.227,0-6.745-5.475-12.213-12.22-12.213z"/></svg>
