<?xml version="1.0" standalone="no"?>
<!DOCTYPE svg PUBLIC "-//W3C//DTD SVG 20010904//EN"
 "http://www.w3.org/TR/2001/REC-SVG-20010904/DTD/svg10.dtd">
<svg version="1.0" xmlns="http://www.w3.org/2000/svg"
 width="700.000000pt" height="700.000000pt" viewBox="0 0 700.000000 700.000000"
 preserveAspectRatio="xMidYMid meet">
<metadata>
Created by potrace 1.11, written by Peter Selinger 2001-2013
</metadata>
<g transform="translate(0.000000,700.000000) scale(0.100000,-0.100000)"
fill="#000000" stroke="none">
<path d="M3394 6630 c-75 -16 -74 -47 4 -86 50 -25 67 -28 142 -28 78 1 323
44 339 59 10 10 -30 35 -58 36 -14 1 -35 3 -46 4 -26 3 -246 17 -305 19 -25 1
-59 -1 -76 -4z"/>
<path d="M2910 6574 c-52 -14 -156 -40 -230 -59 -285 -70 -312 -81 -347 -134
-20 -30 -21 -36 -8 -60 34 -67 122 -126 185 -123 19 0 100 23 180 50 80 27
226 77 324 111 99 33 194 71 212 83 61 42 49 76 -44 123 -76 39 -152 42 -272
9z"/>
<path d="M4015 6494 c-88 -13 -178 -26 -200 -29 -22 -3 -51 -7 -65 -10 -14 -2
-45 -7 -70 -10 -86 -12 -127 -51 -112 -108 6 -21 135 -207 177 -254 5 -6 20
-24 32 -40 94 -123 137 -158 211 -169 41 -6 122 3 272 30 44 8 149 27 177 32
16 2 51 9 78 15 28 5 66 12 85 16 19 3 42 7 50 8 8 2 21 4 28 4 7 1 24 13 37
27 47 51 35 70 -216 327 l-184 188 -70 -2 c-38 -1 -142 -13 -230 -25z"/>
<path d="M4645 6370 c-10 -16 12 -44 136 -172 110 -112 117 -118 184 -138 109
-33 211 -45 241 -30 13 8 24 18 24 23 0 16 -65 71 -116 97 -27 14 -98 53 -159
86 -250 139 -295 158 -310 134z"/>
<path d="M3180 6325 c-142 -44 -585 -197 -615 -211 -16 -8 -40 -28 -52 -45
-37 -54 -27 -101 67 -304 93 -201 123 -249 162 -266 51 -21 120 -17 183 11 11
5 108 39 215 75 107 37 211 73 230 80 19 8 89 33 154 55 153 52 183 70 192
118 4 19 2 48 -3 63 -13 34 -236 343 -276 382 -63 63 -148 77 -257 42z"/>
<path d="M2042 6280 c-12 -5 -113 -70 -223 -145 -111 -74 -205 -135 -210 -135
-5 0 -9 -3 -9 -8 0 -4 -16 -16 -36 -27 -44 -24 -122 -108 -141 -153 -12 -29
-12 -36 4 -62 21 -37 76 -64 111 -55 14 3 91 42 171 87 80 44 171 94 201 110
208 114 259 146 294 181 34 36 38 44 33 80 -6 47 -43 88 -103 117 -48 22 -58
23 -92 10z"/>
<path d="M5204 5917 c-60 -29 -94 -62 -94 -92 0 -22 350 -556 398 -607 32 -35
86 -60 137 -65 45 -5 265 49 305 75 38 23 50 44 44 71 -12 56 -152 231 -318
399 -194 197 -245 231 -358 239 -52 3 -72 0 -114 -20z"/>
<path d="M4605 5849 c-77 -17 -149 -32 -160 -33 -11 -2 -31 -6 -45 -10 -14 -3
-36 -8 -50 -10 -109 -20 -214 -46 -235 -60 -31 -20 -47 -59 -41 -97 2 -15 59
-121 127 -236 67 -114 127 -217 133 -228 63 -112 161 -267 181 -288 32 -31
105 -57 142 -51 26 5 441 136 598 190 87 29 115 58 115 119 0 41 -16 68 -198
342 -110 164 -214 312 -233 327 -81 68 -147 75 -334 35z"/>
<path d="M3745 5640 c-16 -4 -95 -30 -175 -59 -80 -29 -201 -73 -270 -98 -263
-94 -376 -137 -398 -151 -32 -21 -52 -64 -52 -111 0 -39 9 -64 70 -196 34 -75
58 -127 122 -270 129 -288 175 -379 204 -399 44 -32 109 -32 189 -1 39 15 90
35 115 45 185 72 729 295 744 306 30 21 56 67 56 100 0 37 -22 81 -215 416
-195 340 -210 363 -248 387 -42 26 -104 39 -142 31z"/>
<path d="M1228 5367 c-19 -13 -45 -33 -59 -45 -46 -39 -254 -214 -341 -285
-47 -40 -92 -82 -99 -94 -18 -33 -17 -102 6 -403 3 -36 7 -96 10 -135 8 -104
44 -142 107 -111 27 14 489 367 520 398 31 31 51 69 63 121 10 44 9 67 -6 145
-10 52 -20 108 -23 125 -3 18 -8 46 -11 62 -38 207 -41 217 -75 235 -29 16
-54 12 -92 -13z"/>
<path d="M2535 5170 c-26 -6 -145 -68 -600 -310 -222 -118 -217 -115 -247
-174 -28 -55 -25 -117 11 -226 18 -52 75 -226 127 -387 79 -244 100 -297 125
-323 17 -16 39 -31 50 -31 10 -1 25 -2 32 -3 21 -3 77 19 237 97 239 115 495
239 603 292 79 38 103 55 125 87 48 73 44 89 -141 516 -91 210 -172 393 -181
407 -27 42 -90 66 -141 55z"/>
<path d="M5880 5060 c-117 -34 -140 -45 -163 -76 -46 -61 -41 -77 146 -474 24
-52 61 -138 81 -190 53 -133 66 -158 100 -187 25 -20 38 -24 71 -20 49 5 223
105 260 149 25 30 45 85 45 127 0 34 -124 339 -204 501 -70 142 -94 169 -167
190 -46 14 -60 12 -169 -20z"/>
<path d="M5235 4851 c-93 -32 -231 -80 -305 -106 -74 -26 -154 -57 -176 -71
-81 -46 -83 -113 -6 -274 68 -143 172 -369 172 -375 0 -2 34 -84 76 -182 88
-208 109 -236 181 -239 49 -2 72 8 288 126 50 28 113 61 260 140 126 67 165
114 165 195 0 84 -281 723 -347 789 -30 31 -49 40 -103 50 -27 4 -71 -7 -205
-53z"/>
<path d="M4365 4530 c-23 -5 -467 -185 -630 -255 -16 -7 -86 -36 -155 -64 -69
-29 -137 -64 -153 -79 -34 -33 -50 -87 -38 -130 6 -18 10 -36 11 -40 3 -10
138 -321 202 -462 11 -25 51 -115 88 -200 105 -239 107 -244 132 -267 78 -70
92 -67 432 96 67 32 150 72 186 89 100 47 288 135 363 172 90 43 119 81 121
158 1 53 -12 85 -188 482 -176 399 -211 466 -257 491 -24 12 -79 17 -114 9z"/>
<path d="M6392 4100 c-47 -20 -195 -125 -218 -155 -13 -18 -29 -57 -35 -87
-10 -49 -8 -67 21 -184 17 -71 33 -136 35 -144 2 -8 26 -109 54 -224 49 -202
68 -256 94 -256 6 0 22 -3 34 -6 27 -7 88 53 148 146 75 119 80 137 79 300 0
126 -9 279 -19 329 -2 9 -6 48 -10 86 -4 39 -15 88 -25 111 -29 66 -104 107
-158 84z"/>
<path d="M607 3920 c-47 -14 -148 -149 -192 -255 -24 -57 -24 -67 -20 -220 3
-88 7 -173 9 -190 2 -16 7 -61 11 -100 4 -38 9 -79 11 -90 2 -11 7 -40 10 -65
14 -104 94 -161 177 -126 57 24 184 113 210 148 55 75 56 111 3 329 -41 167
-72 300 -81 339 -32 142 -55 205 -84 227 -18 14 -17 14 -54 3z"/>
<path d="M5871 3769 c-21 -8 -269 -148 -481 -270 -104 -61 -128 -81 -151 -127
-17 -35 -20 -55 -16 -95 5 -43 126 -450 219 -740 36 -110 98 -144 177 -96 31
19 337 241 458 332 75 56 116 133 115 216 -1 55 -169 719 -189 746 -32 42 -80
55 -132 34z"/>
<path d="M1734 3343 c-27 -14 -78 -41 -114 -60 -180 -98 -287 -156 -362 -196
-105 -55 -148 -108 -148 -180 0 -63 100 -314 241 -604 76 -157 93 -186 126
-207 79 -52 95 -50 439 72 172 61 321 115 333 122 32 17 61 70 61 111 0 24
-32 106 -101 255 -55 120 -141 316 -191 434 -49 118 -97 223 -106 233 -43 48
-108 55 -178 20z"/>
<path d="M4920 3243 c-8 -3 -84 -38 -167 -79 -84 -40 -217 -103 -295 -141 -78
-37 -209 -102 -292 -143 -136 -68 -152 -79 -170 -115 -37 -72 -31 -91 148
-510 92 -214 177 -401 189 -414 30 -32 77 -51 118 -46 32 4 71 23 254 120 44
24 184 98 310 165 127 67 245 136 262 153 37 34 54 78 54 134 1 41 -236 797
-259 828 -32 45 -101 66 -152 48z"/>
<path d="M6518 3029 c-25 -14 -107 -144 -136 -214 -23 -57 -24 -67 -18 -185
10 -186 19 -240 40 -240 24 0 35 25 66 151 17 68 37 149 45 179 57 213 67 273
48 299 -16 24 -21 25 -45 10z"/>
<path d="M6150 2677 c-14 -6 -77 -51 -140 -100 -63 -49 -148 -114 -189 -145
-213 -164 -226 -177 -252 -255 -19 -58 -15 -109 26 -317 3 -14 12 -65 21 -115
8 -49 20 -103 26 -118 19 -49 83 -66 127 -34 19 13 57 44 216 177 56 47 124
103 151 125 27 22 71 61 99 87 l50 47 -1 78 c-1 93 -12 334 -19 389 -2 21 -7
64 -10 94 -4 42 -11 60 -31 78 -28 25 -38 26 -74 9z"/>
<path d="M3605 2628 c-16 -5 -43 -16 -60 -23 -16 -7 -111 -45 -210 -85 -391
-157 -601 -242 -619 -252 -52 -28 -76 -94 -57 -150 6 -18 50 -100 98 -183 47
-82 94 -164 104 -181 107 -192 196 -340 215 -363 61 -73 145 -81 289 -28 55
20 232 84 393 142 162 58 307 112 323 121 17 8 39 29 49 47 38 62 31 87 -129
441 -82 182 -159 353 -171 381 -53 123 -126 167 -225 133z"/>
<path d="M5228 2026 c-57 -29 -182 -95 -278 -148 -96 -52 -215 -117 -265 -143
-127 -68 -166 -95 -187 -132 -35 -59 -31 -112 17 -217 12 -28 46 -107 74 -176
56 -134 61 -144 104 -177 22 -17 39 -21 77 -19 40 3 95 30 351 172 166 93 314
178 329 190 33 28 72 106 75 152 1 19 -4 67 -12 106 -7 39 -15 81 -17 94 -3
12 -7 30 -10 40 -3 9 -7 28 -10 42 -30 171 -50 229 -88 247 -48 23 -59 21
-160 -31z"/>
<path d="M1240 1799 c-152 -40 -179 -50 -210 -76 -40 -33 -36 -52 32 -153 71
-104 128 -168 295 -335 172 -171 233 -207 344 -207 85 1 189 64 189 115 0 12
-27 62 -60 110 -33 48 -60 92 -60 97 0 4 -4 10 -8 12 -5 2 -64 86 -132 188
-68 102 -134 195 -147 208 -62 58 -132 70 -243 41z"/>
<path d="M5905 1589 c-66 -49 -133 -104 -148 -122 -53 -60 -94 -180 -67 -197
34 -21 80 23 249 235 103 129 122 163 96 172 -5 1 -64 -38 -130 -88z"/>
<path d="M5360 1223 c-327 -178 -538 -298 -558 -316 -23 -22 -42 -75 -37 -104
2 -10 4 -20 4 -23 5 -31 109 -100 151 -100 30 0 53 13 295 173 275 181 299
200 336 254 41 59 41 98 0 135 -47 42 -88 38 -191 -19z"/>
<path d="M4360 736 c-52 -18 -197 -68 -322 -110 -124 -43 -240 -86 -256 -96
-43 -27 -55 -52 -36 -79 30 -42 165 -93 224 -84 14 2 158 37 322 78 163 41
299 75 302 75 3 0 24 16 46 36 52 47 53 79 4 133 -42 47 -107 81 -155 81 -19
0 -77 -15 -129 -34z"/>
</g>
</svg>
